<svg xmlns="http://www.w3.org/2000/svg" viewBox="0 0 720 960" role="img" aria-labelledby="t d"><title id="t">Глиняная табличка</title><desc id="d">Локальная учебная обложка Codex of History</desc><defs><linearGradient id="g" x1="0" y1="0" x2="1" y2="1"><stop stop-color="#252421"/><stop offset="1" stop-color="#090909"/></linearGradient><pattern id="p" width="44" height="44" patternUnits="userSpaceOnUse"><path d="M0 44L44 0" stroke="#a89d83" stroke-opacity=".08"/></pattern></defs><rect width="720" height="960" fill="url(#g)"/><rect width="720" height="960" fill="url(#p)"/><g fill="none" stroke="#a89d83" stroke-width="9" stroke-linecap="round" stroke-linejoin="round" opacity=".67"><path d="M110 360l19 -25l12 -20 M210 360l32 25l26 20 M310 360l37 25l17 -20 M410 360l32 25l29 -20 M510 360l43 25l15 -20"/><path d="M110 440l32 -25l13 -20 M210 440l34 -25l17 -20 M310 440l37 25l24 20 M410 440l18 -25l30 -20 M510 440l27 25l15 20"/><path d="M110 520l22 25l21 -20 M210 520l24 -25l13 20 M310 520l20 25l12 -20 M410 520l24 25l23 20 M510 520l31 -25l27 20"/><path d="M110 600l22 25l14 -20 M210 600l32 -25l30 -20 M310 600l39 -25l18 20 M410 600l25 25l16 -20 M510 600l19 -25l23 20"/><path d="M110 680l28 -25l23 -20 M210 680l20 -25l21 20 M310 680l25 -25l29 20 M410 680l29 -25l20 20 M510 680l18 25l29 -20"/><rect x="80" y="300" width="560" height="520" rx="45"/></g><rect x="48" y="48" width="624" height="864" rx="24" fill="none" stroke="#a89d83" stroke-width="3" opacity=".8"/><text x="70" y="105" fill="#a89d83" font-family="system-ui,sans-serif" font-size="22" font-weight="700" letter-spacing="4">CODEX · ARTIFACT</text><text x="70" y="165" fill="#f4eee3" font-family="system-ui,sans-serif" font-size="38" font-weight="800">Глиняная табличка</text><text x="70" y="858" fill="#d8d0c4" font-family="system-ui,sans-serif" font-size="22">Месопотамия</text><text x="650" y="858" text-anchor="end" fill="#a89d83" font-family="system-ui,sans-serif" font-size="18" font-weight="700">COMMON</text></svg>