<svg xmlns="http://www.w3.org/2000/svg" viewBox="0 0 720 960" role="img" aria-labelledby="t d"><title id="t">Спорная гипотеза</title><desc id="d">Локальная учебная обложка Codex of History</desc><defs><linearGradient id="g" x1="0" y1="0" x2="1" y2="1"><stop stop-color="#20342b"/><stop offset="1" stop-color="#090909"/></linearGradient><pattern id="p" width="44" height="44" patternUnits="userSpaceOnUse"><path d="M0 44L44 0" stroke="#72a887" stroke-opacity=".08"/></pattern></defs><rect width="720" height="960" fill="url(#g)"/><rect width="720" height="960" fill="url(#p)"/><g fill="none" stroke="#72a887" stroke-width="9" stroke-linecap="round" stroke-linejoin="round" opacity=".67"><path d="M80 380 Q250 350 640 390"/><path d="M80 445 Q250 425 640 451"/><path d="M80 510 Q250 500 640 512"/><path d="M80 575 Q250 575 640 573"/><path d="M80 640 Q250 650 640 634"/><path d="M80 705 Q250 725 640 695"/><path d="M80 770 Q250 800 640 756"/><circle cx="245" cy="560" r="90"/><path d="M310 625L470 790"/></g><rect x="48" y="48" width="624" height="864" rx="24" fill="none" stroke="#72a887" stroke-width="3" opacity=".8"/><text x="70" y="105" fill="#72a887" font-family="system-ui,sans-serif" font-size="22" font-weight="700" letter-spacing="4">CODEX · TERM</text><text x="70" y="165" fill="#f4eee3" font-family="system-ui,sans-serif" font-size="38" font-weight="800">Спорная гипотеза</text><text x="70" y="858" fill="#d8d0c4" font-family="system-ui,sans-serif" font-size="22">Исторический метод</text><text x="650" y="858" text-anchor="end" fill="#72a887" font-family="system-ui,sans-serif" font-size="18" font-weight="700">UNCOMMON</text></svg>