<svg xmlns="http://www.w3.org/2000/svg" viewBox="0 0 720 960" role="img" aria-labelledby="t d"><title id="t">Речная адаптация</title><desc id="d">Локальная учебная обложка Codex of History</desc><defs><linearGradient id="g" x1="0" y1="0" x2="1" y2="1"><stop stop-color="#1f2d42"/><stop offset="1" stop-color="#090909"/></linearGradient><pattern id="p" width="44" height="44" patternUnits="userSpaceOnUse"><path d="M0 44L44 0" stroke="#789ac9" stroke-opacity=".08"/></pattern></defs><rect width="720" height="960" fill="url(#g)"/><rect width="720" height="960" fill="url(#p)"/><g fill="none" stroke="#789ac9" stroke-width="9" stroke-linecap="round" stroke-linejoin="round" opacity=".67"><path d="M80 350 C240 312, 450 388, 640 308"/><path d="M80 418 C240 326, 450 510, 640 372"/><path d="M80 486 C240 428, 450 544, 640 435"/><path d="M80 554 C240 454, 450 654, 640 502"/><path d="M80 622 C240 556, 450 688, 640 599"/><path d="M80 690 C240 667, 450 713, 640 668"/><path d="M80 758 C240 672, 450 844, 640 732"/></g><rect x="48" y="48" width="624" height="864" rx="24" fill="none" stroke="#789ac9" stroke-width="3" opacity=".8"/><text x="70" y="105" fill="#789ac9" font-family="system-ui,sans-serif" font-size="22" font-weight="700" letter-spacing="4">CODEX · TERM</text><text x="70" y="165" fill="#f4eee3" font-family="system-ui,sans-serif" font-size="38" font-weight="800">Речная адаптация</text><text x="70" y="858" fill="#d8d0c4" font-family="system-ui,sans-serif" font-size="22">Четыре региона</text><text x="650" y="858" text-anchor="end" fill="#789ac9" font-family="system-ui,sans-serif" font-size="18" font-weight="700">RARE</text></svg>