<svg xmlns="http://www.w3.org/2000/svg" viewBox="0 0 720 900" role="img" aria-label="Атлантический маршрут"><defs><linearGradient id="g" x2="1" y2="1"><stop stop-color="#041014"/><stop offset=".58" stop-color="#142c32"/><stop offset="1" stop-color="#07090b"/></linearGradient><radialGradient id="r"><stop stop-color="#a76f4e" stop-opacity=".58"/><stop offset="1" stop-color="#a76f4e" stop-opacity="0"/></radialGradient></defs><rect width="720" height="900" fill="url(#g)"/><circle cx="535" cy="205" r="310" fill="url(#r)"/><path d="M0 640 C120 590 230 680 345 625 S570 575 720 640 V900 H0Z" fill="#02080b" opacity=".96"/><path d="M0 680 C150 630 250 715 400 665 S610 630 720 680" fill="none" stroke="#a76f4e" stroke-width="6" opacity=".5"/><path d="M62 112 H658 M62 790 H658" stroke="#a76f4e" stroke-width="2" opacity=".85"/><text x="62" y="82" fill="#a76f4e" font-size="20" font-family="Arial" letter-spacing="4">IRON AGE · PHOENICIAN NETWORKS · 08</text><text x="550" y="360" text-anchor="middle" fill="#a76f4e" font-size="150" font-family="serif" opacity=".9">⟡</text><path d="M180 520 H535 L470 585 H240 Z M320 330 V520 M320 350 L465 455 H320 Z" fill="none" stroke="#a76f4e" stroke-width="9" opacity=".38"/><text x="62" y="654" fill="#fff8e9" font-size="40" font-family="Georgia">Атлантический маршрут</text><text x="62" y="710" fill="#d8d0c2" font-size="22" font-family="Arial">сеть между Гибралтаром, Иберией и северо-западной Афри</text><text x="62" y="832" fill="#a76f4e" font-size="18" font-family="Arial" letter-spacing="3">STORY · CODEX OF HISTORY · 08</text></svg>