<svg xmlns="http://www.w3.org/2000/svg" width="720" height="960" viewBox="0 0 720 960"><defs><linearGradient id="g" x1="0" y1="0" x2="1" y2="1"><stop stop-color="#15110d"/><stop offset="1" stop-color="#3a2819"/></linearGradient><pattern id="p" width="56" height="56" patternUnits="userSpaceOnUse"><path d="M0 28h56M28 0v56" stroke="#fff" stroke-opacity=".035"/><circle cx="28" cy="28" r="8" fill="none" stroke="#fff" stroke-opacity=".04"/></pattern></defs><rect width="720" height="960" fill="url(#g)"/><rect width="720" height="960" fill="url(#p)"/><circle cx="540" cy="190" r="170" fill="#8e6b4a" opacity=".17"/><path d="M80 620C210 500 330 690 470 520S650 500 700 410" fill="none" stroke="#8e6b4a" stroke-width="18" opacity=".5"/><path d="M80 670C220 550 340 740 500 570S650 550 700 490" fill="none" stroke="#d8b77f" stroke-width="5" opacity=".32"/><rect x="58" y="58" width="604" height="844" rx="28" fill="none" stroke="#d6b77d" stroke-opacity=".35" stroke-width="2"/><text x="72" y="106" fill="#dcb978" font-family="Arial" font-size="20" letter-spacing="5">ПЕРВЫЕ ЦИВИЛИЗАЦИИ</text><text x="72" y="760" fill="#fff5df" font-family="Georgia" font-size="48" font-weight="700">Клинопись и иероглифы</text><text x="72" y="812" fill="#cfbea1" font-family="Arial" font-size="22">две ранние письменные традиции</text><text x="72" y="870" fill="#9f8a6e" font-family="Arial" font-size="17">ЕГИПЕТ · МЕСОПОТАМИЯ</text></svg>