<svg xmlns="http://www.w3.org/2000/svg" viewBox="0 0 720 960" role="img" aria-labelledby="t d"><title id="t">Архив Хатти</title><desc id="d">Вертикальная обложка с монументальными воротами и двойным орлом</desc><defs><linearGradient id="bg" x2="1" y2="1"><stop stop-color="#070907"/><stop offset=".55" stop-color="#263027"/><stop offset="1" stop-color="#110d08"/></linearGradient><radialGradient id="r"><stop stop-color="#d2a45f" stop-opacity=".46"/><stop offset="1" stop-color="#d2a45f" stop-opacity="0"/></radialGradient></defs><rect width="720" height="960" rx="52" fill="url(#bg)"/><circle cx="360" cy="330" r="280" fill="url(#r)"/><g fill="none" stroke="#d2a45f" stroke-linejoin="round"><path d="M115 700L175 235h370l60 465" stroke-width="8"/><path d="M205 675V315h310v360" stroke-width="4"/><path d="M90 730h540" stroke-width="9"/></g><g fill="#e3bd79" transform="translate(360 450)"><path d="M0-95c-34-45-79-55-132-44 41 20 66 52 72 94-39-27-77-30-116-10 53 26 88 64 105 114L0 18z"/><path d="M0-95c34-45 79-55 132-44-41 20-66 52-72 94 39-27 77-30 116-10-53 26-88 64-105 114L0 18z"/><circle cy="-64" r="22"/><path d="M-16-86h32L0-126z"/></g><text x="360" y="806" text-anchor="middle" fill="#fff5df" font-family="system-ui" font-size="43" font-weight="800">ХАТТИ</text><text x="360" y="858" text-anchor="middle" fill="#d2a45f" font-family="system-ui" font-size="23" letter-spacing="6">АНАТОЛИЯ</text></svg>
